<?xml version="1.0" encoding="UTF-8"?>
<svg id="Layer_1" data-name="Layer 1" xmlns="http://www.w3.org/2000/svg" viewBox="0 0 225.6 82.63">
  <path d="M225.6,66.83c-3.52,3.6-8.24,4.29-12.82,4.67-25.76,2.18-51.52,2.19-77.26-.38-1.43-.14-3.82,.66-4.08-1.74-.31-2.93-1.19-5.96-.16-8.84,.42-1.17,2.08-.66,3.21-.64,4.49,.06,8.99,.14,13.48,.24,1.14,.02,2.5-.29,3.26,.8,3.26,4.68,8.25,4.46,13.05,4.69,16.79,.81,33.58,1.98,50.31-.74,2.45-.4,5-.79,7.22-1.81,2.35-1.08,2.78,.66,3.79,1.74v2Z"/>
  <path d="M71.62,.65c27.9-2.48,53.09,2.08,76.83,14.61-.29,1.12-1.29,.65-1.96,.61-16.3-.99-32.59-.46-48.88,.21-5.88,.24-10.66-1.23-14.79-5.57-3.06-3.21-6.66-5.9-11.21-9.86Z"/>
  <path d="M80.46,19.03c-12.12,.46-23.73,.88-35.33,1.39-1.77,.08-2.7-.66-3.55-2.08-1.37-2.27-2.69-4.65-4.5-6.54-2.74-2.87-2.73-4.39,1.36-5.6,5.43-1.59,10.81-3.29,16.5-3.6,11.02-.6,20.91,5.61,25.52,16.43Z"/>
  <path d="M219.36,41.93c-2.72-.36-2.46-3.22-4.3-4.23-.92,1.77,1.43,3.85-.34,5.39-1.7,1.47-3.82,.59-5.75,.54-5.48-.16-10.95-.43-16.42-.72-4.04-.22-12.06-9.46-11.73-13.36,.13-1.6,1.26-1.78,2.42-1.92,8.27-.96,16.7-1.9,24.56,1.38,5.54,2.31,11.4,5.18,11.57,12.94Z"/>
  <path d="M202.5,25.96c-7.14,0-13.37-.2-19.59,.06-5.52,.23-5.76,.93-3.19,5.91,.97,1.88,1.92,3.77,2.22,6.25-.93-.98-1.83-1.98-2.79-2.93-6.29-6.23-13.34-10.43-22.5-11.74-12.95-1.85-25.9-3.69-40.13-5.19,27.92-2.39,73.94,1.61,85.99,7.64Z"/>
  <path d="M14.51,22.1c3.88-6.67,9.49-9.94,15.49-11.99,3.83-1.3,5.18,3.22,7.07,5.72,.92,1.22,2.63,2.66,1.52,4.32-.87,1.29-2.78,.61-4.21,.6-6.39-.04-12.76,.24-19.86,1.34Z"/>
  <path d="M109.71,79.69c14.05-6.65,14.28-39.85,1.32-43.32,7.82,.21,13.5,8.68,13.78,20.56,.31,13.04-5.35,22.13-15.1,22.76Z"/>
  <path d="M174.64,75.47h30.46c-5.78,9.1-22.79,9.97-30.46,0Z"/>
  <path d="M174.81,36.5c.69,4.1-2.95,3.72-5.57,3.39-4.26-.03-9.35-4.15-10.31-8.22-.73-3.13,1.15-5.12,4.48-4.53,0,0,10.25,2.46,11.41,9.36Z"/>
  <path d="M151.5,38.17c-4.5,.1-9.98-3.96-9.82-7.44,.12-2.67,2.02-3.65,4.4-3.68,5.32-.06,10.17,3,10.35,6.41,.16,3.12-1.41,4.63-4.92,4.71Z"/>
  <path d="M65.86,72.35c-21.29,2.24-41.39-1.22-61.44-5.51,20.3,1.82,40.61,3.64,61.44,5.51Z"/>
  <path d="M67.27,55.16c-13.22,0-28.16,.02-43.09-.01-5.09-.01-6.57-3.51-7.11-8.19,3.77,5.9,9.59,5.75,15.39,6.05,12.27,.64,24.52,1.5,34.82,2.15Z"/>
  <path d="M114.93,80.99c6.18-3.49,9.41-8.86,11.21-15.99,1.4,4.25-1.88,10.73,6.56,9.5-4.37,7.85-11.3,6.46-17.77,6.49Z"/>
  <path d="M24.65,59c14.17-.9,28.31,.23,42.45,1.39H24.64c0-.46,0-.93,0-1.39Z"/>
  <path d="M0,26.48C8.62,20.43,14.98,11.44,24.99,7.26,16.21,13.11,9.45,21.56,0,26.48Z"/>
</svg>