<svg width="14" height="15" viewBox="0 0 14 15" fill="none" xmlns="http://www.w3.org/2000/svg">
<path fill-rule="evenodd" clip-rule="evenodd" d="M6.189 14.7581C6.39896 14.8787 6.63687 14.9421 6.879 14.9421C7.1208 14.942 7.35837 14.8786 7.568 14.7581L12.844 11.7111C13.2698 11.4641 13.5322 11.0093 13.533 10.5171V4.42508C13.5321 3.93257 13.2698 3.47757 12.844 3.23008L7.568 0.184076C7.14122 -0.0618469 6.61577 -0.0618469 6.189 0.184076L0.913999 3.23008C0.487663 3.47717 0.224862 3.93231 0.223999 4.42508V10.5171C0.224808 11.0096 0.487671 11.4645 0.913999 11.7111L6.189 14.7581ZM3.985 6.87508C4.05479 6.8027 4.15147 6.7625 4.252 6.76408C4.35421 6.76134 4.45288 6.80161 4.524 6.87508L6.17 8.52808L10.225 4.46908C10.3736 4.32149 10.6134 4.32149 10.762 4.46908L11.299 5.00508C11.446 5.15388 11.446 5.39327 11.299 5.54208L6.975 9.86508L6.438 10.4021C6.28942 10.5497 6.04958 10.5497 5.901 10.4021L5.365 9.86508L3.448 7.94808C3.30096 7.79927 3.30096 7.55988 3.448 7.41108L3.985 6.87508Z" fill="#58BE3F"/>
</svg>
