<svg width="16" height="15" viewBox="0 0 16 15" fill="none" xmlns="http://www.w3.org/2000/svg">
<path fill-rule="evenodd" clip-rule="evenodd" d="M6.24101 14.289L0.362013 8.409C0.13712 8.27328 -0.000241988 8.02967 1.26365e-05 7.767C-0.000758246 7.63436 0.0337543 7.5039 0.100013 7.389C0.134232 7.32614 0.177343 7.26855 0.228013 7.218C0.252418 7.19357 0.27848 7.17085 0.306013 7.15L6.23801 1.218C6.53117 0.925431 7.00585 0.925431 7.29901 1.218C7.59158 1.51116 7.59158 1.98584 7.29901 2.279L2.56001 7.017H15.248C15.4471 7.017 15.638 7.09615 15.7787 7.23702C15.9194 7.37789 15.9983 7.56891 15.998 7.768C15.998 8.18221 15.6622 8.518 15.248 8.518H2.58801L7.29901 13.229C7.59158 13.5222 7.59158 13.9968 7.29901 14.29C7.15815 14.4307 6.96708 14.5095 6.76801 14.509C6.57019 14.5081 6.38073 14.4291 6.24101 14.289Z" fill="white"/>
</svg>
