<svg width="34" height="34" viewBox="0 0 34 34" fill="none" xmlns="http://www.w3.org/2000/svg">
<path d="M17.2365 10.4301H9.3315C6.5415 10.4301 5.9115 11.8251 5.5665 13.5501L4.2915 19.6251H22.2915L21.0165 13.5501C20.6415 11.8251 20.0265 10.4301 17.2365 10.4301V10.4301Z" stroke="#603FBE" stroke-width="2.5" stroke-linecap="round" stroke-linejoin="round"/>
<path d="M4.27656 16.25H3.15156M23.4016 16.25H22.2766M6.52656 24.125H9.90156M16.6516 24.125H20.0266M27.0916 12.11C27.5116 11.135 27.3616 9.815 26.5816 8.66C25.8166 7.505 24.6466 6.86 23.5816 6.875M31.7566 13.595C32.3866 11.33 31.9366 8.555 30.3316 6.155C28.7266 3.755 26.3266 2.285 23.9866 2M24.5116 29.54C24.6316 30.86 23.5816 32 22.2316 32H20.1166C18.9016 32 18.7366 31.475 18.5116 30.845L18.2866 30.17C17.9716 29.255 17.7616 28.625 16.1416 28.625H10.3816C8.76156 28.625 8.52156 29.33 8.23656 30.17L8.01156 30.845C7.80156 31.49 7.63656 32 6.40656 32H4.29156C2.94156 32 1.87656 30.86 2.01156 29.54L2.64156 22.685C2.80656 20.99 3.12156 19.61 6.07656 19.61H20.4316C23.3866 19.61 23.7016 20.99 23.8666 22.685L24.5116 29.54Z" stroke="#603FBE" stroke-width="2.5" stroke-linecap="round" stroke-linejoin="round"/>
</svg>
