<svg width="15" height="15" viewBox="0 0 15 15" fill="none" xmlns="http://www.w3.org/2000/svg">
<path fill-rule="evenodd" clip-rule="evenodd" d="M1.67998 15.0001C1.23263 15.0089 0.801556 14.8323 0.488984 14.5121C0.168197 14.1994 -0.00882287 13.7679 -1.60977e-05 13.3201V1.68009C-0.00932534 1.23234 0.167361 0.800763 0.487984 0.488089C0.800795 0.167669 1.23228 -0.00897985 1.67998 8.8575e-05H13.321C13.7683 -0.00846213 14.1993 0.168127 14.512 0.488089C14.8321 0.801104 15.0087 1.23245 15 1.68009V13.3201C15.0037 13.7666 14.8281 14.196 14.5124 14.5118C14.1968 14.8277 13.7675 15.0036 13.321 15.0001H1.67998ZM1.67998 13.3201H13.321V1.68009H1.67998V13.3201ZM5.89298 10.0611L7.53098 8.42009L9.19798 10.0611L10.09 9.16809L8.42398 7.53009L10.092 5.89309L9.19998 5.00009L7.53098 6.63709L5.89298 5.00009L4.99998 5.89309L6.63798 7.53009L4.99998 9.16809L5.89298 10.0611Z" fill="#58BE3F"/>
</svg>
