<?xml version="1.0" standalone="no"?>
<!DOCTYPE svg PUBLIC "-//W3C//DTD SVG 20010904//EN"
 "http://www.w3.org/TR/2001/REC-SVG-20010904/DTD/svg10.dtd">
<svg version="1.0" xmlns="http://www.w3.org/2000/svg"
 width="25.000000pt" height="25.000000pt" viewBox="0 0 25.000000 25.000000"
 preserveAspectRatio="xMidYMid meet">

<g transform="translate(0.000000,25.000000) scale(0.100000,-0.100000)"
fill="#000000" stroke="none">
<path d="M51 161 c-11 -7 -11 -10 0 -17 7 -4 14 -3 17 4 5 15 78 16 87 2 3 -5
11 -10 18 -10 6 0 2 7 -9 15 -21 16 -91 20 -113 6z"/>
<path d="M0 125 c0 -14 4 -25 10 -25 5 0 7 7 3 16 -3 9 0 20 8 25 11 7 11 9
-3 9 -13 0 -18 -8 -18 -25z"/>
<path d="M221 128 c9 -7 19 -20 23 -28 3 -8 4 -4 3 10 -1 16 -9 26 -22 28 -18
3 -18 3 -4 -10z"/>
<path d="M31 105 c-1 -19 5 -20 96 -19 90 1 122 11 94 29 -7 3 -8 0 -5 -9 4
-11 0 -16 -11 -16 -11 0 -15 5 -11 15 3 8 1 15 -4 15 -6 0 -10 -4 -10 -10 0
-6 -27 -10 -61 -10 -43 0 -58 3 -53 12 4 7 3 8 -5 4 -6 -4 -9 -12 -6 -17 4 -5
2 -9 -4 -9 -5 0 -12 8 -14 18 -4 14 -5 14 -6 -3z"/>
</g>
</svg>
