<svg width="17" height="9" viewBox="0 0 17 9" fill="none" xmlns="http://www.w3.org/2000/svg">
<path d="M8.4282 8.11816C8.6581 8.11816 8.8696 8.03516 9.03513 7.87744L16.1711 1.30322C16.3274 1.15381 16.4102 0.971191 16.4102 0.755371C16.4102 0.332031 16.0515 0 15.5733 0C15.3434 0 15.1319 0.0830078 14.9756 0.21582L8.4282 6.25879L1.8808 0.21582C1.72447 0.0830078 1.52216 0 1.28307 0C0.804888 0 0.446252 0.332031 0.446252 0.755371C0.446252 0.971191 0.529014 1.15381 0.694538 1.30322L7.82128 7.87744C7.996 8.03516 8.19831 8.11816 8.4282 8.11816Z" fill="#3C3C43" fill-opacity="0.3"/>
</svg>
