<svg width="147" height="144" viewBox="0 0 147 144" fill="none" xmlns="http://www.w3.org/2000/svg">
<path fill-rule="evenodd" clip-rule="evenodd" d="M73.5 1C113.541 1 146 32.788 146 72C146 111.212 113.541 143 73.5 143C33.459 143 1 111.212 1 72C1 32.788 33.459 1 73.5 1Z" fill="white"/>
<g opacity="0.139">
<rect x="1.35205" y="1" width="144.296" height="142.096" rx="71.048" fill="#353B50" fill-opacity="0.99" stroke="#353B50" stroke-opacity="0.01"/>
<mask id="mask0_0_3105" style="mask-type:alpha" maskUnits="userSpaceOnUse" x="1" y="1" width="145" height="143">
<rect x="1.35205" y="1" width="144.296" height="142.096" rx="71.048" fill="white"/>
</mask>
<g mask="url(#mask0_0_3105)">
<path fill-rule="evenodd" clip-rule="evenodd" d="M58.9028 97.024V97.224C58.8488 101.39 55.3372 104.523 48.3678 106.624C56.7678 112.716 65.1678 117.589 73.5608 117.589C81.9538 117.589 90.3528 112.71 98.7528 106.619C91.8308 104.518 88.3198 101.381 88.2198 97.209C88.2198 96.465 88.2258 95.409 88.2298 93.426C88.2298 93.1113 88.2298 92.7887 88.2298 92.458C88.7298 92.529 88.6898 92.484 88.2298 92.358C88.2438 87.141 88.2658 80.125 88.2968 72.996C94.8618 64.509 92.4498 54.558 90.3968 54.807C87.8728 55.107 66.0218 34.43 61.8308 33.372C57.6398 32.314 46.9938 35.733 45.1608 45.272C43.3278 54.811 42.5608 78.849 49.5118 88.446C51.4892 91.1793 54.6035 92.246 58.8548 91.646C58.8608 93.646 58.8728 94.762 58.9018 97.023L58.9028 97.024Z" fill="url(#paint0_linear_0_3105)"/>
<mask id="mask1_0_3105" style="mask-type:alpha" maskUnits="userSpaceOnUse" x="43" y="33" width="56" height="85">
<path fill-rule="evenodd" clip-rule="evenodd" d="M58.9028 97.024V97.224C58.8488 101.39 55.3372 104.523 48.3678 106.624C56.7678 112.716 65.1678 117.589 73.5608 117.589C81.9538 117.589 90.3528 112.71 98.7528 106.619C91.8308 104.518 88.3198 101.381 88.2198 97.209C88.2198 96.465 88.2258 95.409 88.2298 93.426C88.2298 93.1113 88.2298 92.7887 88.2298 92.458C88.7298 92.529 88.6898 92.484 88.2298 92.358C88.2438 87.141 88.2658 80.125 88.2968 72.996C94.8618 64.509 92.4498 54.558 90.3968 54.807C87.8728 55.107 66.0218 34.43 61.8308 33.372C57.6398 32.314 46.9938 35.733 45.1608 45.272C43.3278 54.811 42.5608 78.849 49.5118 88.446C51.4892 91.1793 54.6035 92.246 58.8548 91.646C58.8608 93.646 58.8728 94.762 58.9018 97.023L58.9028 97.024Z" fill="white"/>
</mask>
<g mask="url(#mask1_0_3105)">
<path opacity="0.228" fill-rule="evenodd" clip-rule="evenodd" d="M58.9019 91.64C64.7353 91.0498 70.3662 89.1778 75.3919 86.158C75.3919 86.158 68.4569 95.349 58.9019 97.123V91.64Z" fill="#FFBE94"/>
</g>
<path fill-rule="evenodd" clip-rule="evenodd" d="M91.6529 73.137C94.8089 65.566 107.453 50.149 96.5529 40.554C92.8899 22.736 72.6439 24.709 59.1309 28.82C50.0489 31.584 43.1909 37.044 41.7249 32.932C32.5639 40.554 37.1519 48.009 43.1909 50.149C48.6729 52.091 57.9419 54.028 73.7029 52.205C76.5179 51.879 75.9289 60.478 77.4329 61.405C79.6899 62.8 81.4419 54.03 87.6329 56.663C93.8239 59.296 90.1489 71.507 83.5069 71.507C81.2169 71.507 80.0719 77.787 86.2549 80.757C90.7369 82.96 89.6029 78.056 91.6529 73.137Z" fill="url(#paint1_linear_0_3105)"/>
<path fill-rule="evenodd" clip-rule="evenodd" d="M121.429 121.241C125.774 130.068 128.275 150.427 128.275 150.427H18.729C18.729 150.427 21.229 130.066 25.575 121.241C29.921 112.416 55.288 104.227 55.288 104.227C60.178 114.259 87.013 114.258 91.698 104.227C91.698 104.227 117.079 112.413 121.429 121.241Z" fill="white"/>
<mask id="mask2_0_3105" style="mask-type:alpha" maskUnits="userSpaceOnUse" x="18" y="104" width="111" height="47">
<path fill-rule="evenodd" clip-rule="evenodd" d="M121.429 121.241C125.774 130.068 128.275 150.427 128.275 150.427H18.729C18.729 150.427 21.229 130.066 25.575 121.241C29.921 112.416 55.288 104.227 55.288 104.227C60.178 114.259 87.013 114.258 91.698 104.227C91.698 104.227 117.079 112.413 121.429 121.241Z" fill="white"/>
</mask>
<g mask="url(#mask2_0_3105)">
<path fill-rule="evenodd" clip-rule="evenodd" d="M14.165 119.276V122.925H132.835V119.276H14.165ZM14.165 132.045V128.397H132.835V132.046L14.165 132.045ZM14.165 141.166V137.517H132.835V141.166H14.165Z" fill="#353B50"/>
</g>
</g>
</g>
<defs>
<linearGradient id="paint0_linear_0_3105" x1="43.8972" y1="33.1871" x2="43.8972" y2="117.589" gradientUnits="userSpaceOnUse">
<stop stop-color="#E2FBFF"/>
<stop offset="1" stop-color="#FFE2CF"/>
</linearGradient>
<linearGradient id="paint1_linear_0_3105" x1="100.901" y1="86.4947" x2="109.906" y2="30.7238" gradientUnits="userSpaceOnUse">
<stop stop-color="#353B50"/>
<stop offset="1" stop-color="#232439"/>
</linearGradient>
</defs>
</svg>
