<?xml version="1.0" standalone="no"?>
<!DOCTYPE svg PUBLIC "-//W3C//DTD SVG 20010904//EN"
 "http://www.w3.org/TR/2001/REC-SVG-20010904/DTD/svg10.dtd">
<svg version="1.0" xmlns="http://www.w3.org/2000/svg"
 width="25.000000pt" height="25.000000pt" viewBox="0 0 25.000000 25.000000"
 preserveAspectRatio="xMidYMid meet">

<g transform="translate(0.000000,25.000000) scale(0.100000,-0.100000)"
fill="#000000" stroke="none">
<path d="M82 210 c-19 -23 -36 -56 -39 -78 -3 -20 -12 -45 -21 -54 -20 -23 0
-48 38 -48 15 0 33 -7 40 -15 7 -8 18 -15 25 -15 7 0 18 7 25 15 7 8 25 15 40
15 38 0 58 25 38 48 -9 9 -18 34 -21 54 -6 37 -62 118 -82 118 -5 0 -25 -18
-43 -40z m93 -33 c8 -12 15 -39 15 -60 0 -24 5 -40 15 -43 38 -15 7 -24 -80
-24 -87 0 -118 9 -80 24 9 3 15 19 15 41 0 45 15 74 43 84 29 11 55 3 72 -22z
m-38 -153 c-3 -3 -12 -4 -19 -1 -8 3 -5 6 6 6 11 1 17 -2 13 -5z"/>
</g>
</svg>
