<svg width="16" height="15" viewBox="0 0 16 15" fill="none" xmlns="http://www.w3.org/2000/svg">
<path fill-rule="evenodd" clip-rule="evenodd" d="M7.71202 4.96384e-05C5.72334 -0.031465 3.81042 0.762085 2.42802 2.19205C1.00208 3.57473 0.210662 5.48505 0.241015 7.47105C0.210662 9.45705 1.00208 11.3674 2.42802 12.75C3.81042 14.18 5.72334 14.9736 7.71202 14.942C9.70069 14.9736 11.6136 14.18 12.996 12.75C14.422 11.3674 15.2134 9.45705 15.183 7.47105C15.2134 5.48505 14.422 3.57473 12.996 2.19205C11.6136 0.762085 9.70069 -0.031465 7.71202 4.96384e-05ZM10.041 8.34805L10.879 11.961L7.69502 10.067L4.54102 11.961L5.38602 8.34605L2.58602 5.92605L6.26002 5.64505L7.69502 2.24505L9.12902 5.61005L12.805 5.92805L10.041 8.34805Z" fill="#58BE3F"/>
</svg>
