<svg width="13" height="13" viewBox="0 0 13 13" fill="none" xmlns="http://www.w3.org/2000/svg">
<path fill-rule="evenodd" clip-rule="evenodd" d="M2.39369 12.3577C2.43455 12.4061 2.49466 12.434 2.55798 12.434C2.59284 12.4339 2.62715 12.4253 2.65798 12.409L6.13298 10.583L9.60898 12.409C9.68131 12.447 9.76892 12.4407 9.83508 12.3928C9.90124 12.3449 9.93453 12.2636 9.92098 12.183L9.25698 8.313L12.069 5.572C12.1271 5.51485 12.148 5.42972 12.1227 5.35217C12.0975 5.27463 12.0306 5.21802 11.95 5.206L8.06398 4.641L6.32498 1.12C6.28911 1.04665 6.21463 1.0001 6.13298 1C6.05133 1.0001 5.97684 1.04665 5.94098 1.12L4.20298 4.641L0.316978 5.206C0.236329 5.21802 0.169421 5.27463 0.144209 5.35217C0.118997 5.42972 0.13982 5.51485 0.197978 5.572L3.00998 8.313L2.34598 12.183C2.33538 12.2454 2.35283 12.3094 2.39369 12.3577ZM3.39098 8.083L0.809978 5.568L4.37098 5.049C4.44092 5.03899 4.50148 4.99525 4.53298 4.932L6.13298 1.7L7.73298 4.932C7.76324 4.99433 7.82169 5.03826 7.88998 5.05L11.458 5.568L8.87698 8.084C8.82634 8.1333 8.80316 8.20433 8.81498 8.274L9.42298 11.826L6.23298 10.149C6.17041 10.1159 6.09554 10.1159 6.03298 10.149L2.84298 11.826L3.45298 8.273C3.46479 8.20333 3.44161 8.1323 3.39098 8.083Z" fill="#2DBB54"/>
<path d="M2.55798 12.434L2.55799 12.534L2.55838 12.534L2.55798 12.434ZM2.65798 12.409L2.61146 12.3205L2.61128 12.3206L2.65798 12.409ZM6.13298 10.583L6.17948 10.4945L6.13297 10.47L6.08646 10.4945L6.13298 10.583ZM9.60898 12.409L9.56247 12.4975L9.56248 12.4975L9.60898 12.409ZM9.92098 12.183L10.0196 12.1664L10.0195 12.1661L9.92098 12.183ZM9.25698 8.313L9.18718 8.24139L9.14953 8.27809L9.15842 8.32991L9.25698 8.313ZM12.069 5.572L12.1388 5.64361L12.1391 5.64333L12.069 5.572ZM11.95 5.206L11.9647 5.10709L11.9644 5.10704L11.95 5.206ZM8.06398 4.641L7.97432 4.68528L7.99759 4.7324L8.04959 4.73996L8.06398 4.641ZM6.32498 1.12L6.23514 1.16393L6.23532 1.16428L6.32498 1.12ZM6.13298 1L6.13309 0.9L6.13286 0.9L6.13298 1ZM5.94098 1.12L6.03065 1.16426L6.03081 1.16393L5.94098 1.12ZM4.20298 4.641L4.21737 4.73996L4.26938 4.7324L4.29265 4.68526L4.20298 4.641ZM0.316978 5.206L0.30259 5.10704L0.302236 5.10709L0.316978 5.206ZM0.144209 5.35217L0.0491094 5.32125L0.144209 5.35217ZM0.197978 5.572L0.127887 5.64333L0.128177 5.64361L0.197978 5.572ZM3.00998 8.313L3.10854 8.32991L3.11743 8.27809L3.07978 8.24139L3.00998 8.313ZM2.34598 12.183L2.24742 12.1661L2.24739 12.1663L2.34598 12.183ZM0.809978 5.568L0.795556 5.46905L0.595117 5.49826L0.740189 5.63962L0.809978 5.568ZM3.39098 8.083L3.32119 8.15462L3.32122 8.15465L3.39098 8.083ZM4.37098 5.049L4.35681 4.95001L4.35656 4.95005L4.37098 5.049ZM4.53298 4.932L4.6225 4.97657L4.6226 4.97637L4.53298 4.932ZM6.13298 1.7L6.2226 1.65563L6.13298 1.4746L6.04336 1.65563L6.13298 1.7ZM7.73298 4.932L7.82294 4.88833L7.8226 4.88763L7.73298 4.932ZM7.88998 5.05L7.87304 5.14859L7.87561 5.14896L7.88998 5.05ZM11.458 5.568L11.5278 5.63961L11.6729 5.49815L11.4723 5.46904L11.458 5.568ZM8.87698 8.084L8.94673 8.15565L8.94678 8.15561L8.87698 8.084ZM8.81498 8.274L8.71638 8.29072L8.71641 8.29087L8.81498 8.274ZM9.42298 11.826L9.37644 11.9145L9.55571 12.0088L9.52154 11.8091L9.42298 11.826ZM6.23298 10.149L6.18625 10.2374L6.18645 10.2375L6.23298 10.149ZM6.03298 10.149L6.07951 10.2375L6.07971 10.2374L6.03298 10.149ZM2.84298 11.826L2.74442 11.8091L2.71013 12.0088L2.88951 11.9145L2.84298 11.826ZM3.45298 8.273L3.55154 8.28992L3.55157 8.28972L3.45298 8.273ZM2.55796 12.334C2.52409 12.334 2.49194 12.3191 2.47009 12.2932L2.31729 12.4223C2.37716 12.4931 2.46522 12.534 2.55799 12.534L2.55796 12.334ZM2.61128 12.3206C2.59472 12.3293 2.5763 12.3339 2.55757 12.334L2.55838 12.534C2.60939 12.5338 2.65958 12.5212 2.70468 12.4974L2.61128 12.3206ZM6.08646 10.4945L2.61146 12.3205L2.70449 12.4975L6.17949 10.6715L6.08646 10.4945ZM9.65548 12.3205L6.17948 10.4945L6.08647 10.6715L9.56247 12.4975L9.65548 12.3205ZM9.77642 12.3118C9.74103 12.3374 9.69417 12.3408 9.65548 12.3205L9.56248 12.4975C9.66845 12.5532 9.7968 12.544 9.89374 12.4738L9.77642 12.3118ZM9.82236 12.1996C9.82961 12.2427 9.81181 12.2862 9.77642 12.3118L9.89374 12.4738C9.99068 12.4035 10.0394 12.2845 10.0196 12.1664L9.82236 12.1996ZM9.15842 8.32991L9.82242 12.1999L10.0195 12.1661L9.35554 8.29609L9.15842 8.32991ZM11.9992 5.50039L9.18718 8.24139L9.32678 8.38461L12.1388 5.64361L11.9992 5.50039ZM12.0276 5.38309C12.0411 5.42457 12.03 5.47011 11.9989 5.50067L12.1391 5.64333C12.2243 5.55959 12.2548 5.43486 12.2178 5.32125L12.0276 5.38309ZM11.9352 5.30491C11.9784 5.31134 12.0142 5.34162 12.0276 5.38309L12.2178 5.32125C12.1809 5.20764 12.0829 5.1247 11.9647 5.10709L11.9352 5.30491ZM8.04959 4.73996L11.9356 5.30496L11.9644 5.10704L8.07837 4.54204L8.04959 4.73996ZM6.23532 1.16428L7.97432 4.68528L8.15364 4.59672L6.41464 1.07572L6.23532 1.16428ZM6.13286 1.1C6.17636 1.10005 6.21604 1.12485 6.23514 1.16393L6.41481 1.07607C6.36219 0.968444 6.2529 0.90014 6.13309 0.9L6.13286 1.1ZM6.03081 1.16393C6.04992 1.12485 6.0896 1.10005 6.13309 1.1L6.13286 0.9C6.01305 0.90014 5.90377 0.968444 5.85114 1.07607L6.03081 1.16393ZM4.29265 4.68526L6.03065 1.16426L5.85131 1.07574L4.11331 4.59674L4.29265 4.68526ZM0.331366 5.30496L4.21737 4.73996L4.18859 4.54204L0.30259 5.10704L0.331366 5.30496ZM0.239309 5.38309C0.252794 5.34162 0.288582 5.31134 0.33172 5.30491L0.302236 5.10709C0.184077 5.1247 0.0860482 5.20764 0.0491094 5.32125L0.239309 5.38309ZM0.268069 5.50067C0.236961 5.47011 0.225823 5.42457 0.239309 5.38309L0.0491094 5.32125C0.0121706 5.43486 0.0426787 5.55959 0.127887 5.64333L0.268069 5.50067ZM3.07978 8.24139L0.267779 5.50039L0.128177 5.64361L2.94018 8.38461L3.07978 8.24139ZM2.44454 12.1999L3.10854 8.32991L2.91142 8.29609L2.24742 12.1661L2.44454 12.1999ZM2.47009 12.2932C2.44823 12.2673 2.43889 12.2331 2.44457 12.1997L2.24739 12.1663C2.23186 12.2577 2.25743 12.3514 2.31729 12.4223L2.47009 12.2932ZM0.740189 5.63962L3.32119 8.15462L3.46077 8.01138L0.879767 5.49638L0.740189 5.63962ZM4.35656 4.95005L0.795556 5.46905L0.8244 5.66695L4.3854 5.14795L4.35656 4.95005ZM4.44346 4.88743C4.42662 4.92126 4.39422 4.94465 4.35681 4.95001L4.38515 5.14799C4.48762 5.13332 4.57635 5.06924 4.62249 4.97657L4.44346 4.88743ZM6.04336 1.65563L4.44336 4.88763L4.6226 4.97637L6.2226 1.74437L6.04336 1.65563ZM7.8226 4.88763L6.2226 1.65563L6.04336 1.74437L7.64336 4.97637L7.8226 4.88763ZM7.90691 4.95144C7.87039 4.94517 7.83912 4.92167 7.82294 4.88833L7.64302 4.97567C7.68735 5.067 7.77299 5.13136 7.87304 5.14856L7.90691 4.95144ZM11.4723 5.46904L7.90435 4.95104L7.87561 5.14896L11.4436 5.66696L11.4723 5.46904ZM8.94678 8.15561L11.5278 5.63961L11.3882 5.49639L8.80717 8.01239L8.94678 8.15561ZM8.91357 8.25728C8.90725 8.22001 8.91965 8.18202 8.94673 8.15565L8.80722 8.01235C8.73304 8.08457 8.69907 8.18864 8.71638 8.29072L8.91357 8.25728ZM9.52154 11.8091L8.91354 8.25713L8.71641 8.29087L9.32441 11.8429L9.52154 11.8091ZM6.18645 10.2375L9.37644 11.9145L9.46951 11.7375L6.27951 10.0605L6.18645 10.2375ZM6.07971 10.2374C6.11304 10.2198 6.15292 10.2198 6.18625 10.2374L6.27971 10.0606C6.1879 10.0121 6.07805 10.0121 5.98625 10.0606L6.07971 10.2374ZM2.88951 11.9145L6.07951 10.2375L5.98645 10.0605L2.79645 11.7375L2.88951 11.9145ZM3.35442 8.25608L2.74442 11.8091L2.94154 11.8429L3.55154 8.28992L3.35442 8.25608ZM3.32122 8.15465C3.34831 8.18102 3.3607 8.21901 3.35439 8.25628L3.55157 8.28972C3.56888 8.18764 3.53492 8.08357 3.46073 8.01135L3.32122 8.15465Z" fill="#2DBB54"/>
</svg>
