<svg width="81" height="24" viewBox="0 0 81 24" fill="none" xmlns="http://www.w3.org/2000/svg">
<path d="M32.632 7.27V13.472C32.632 14.2093 32.8233 14.7647 33.206 15.138C33.598 15.5113 34.1393 15.698 34.83 15.698C35.53 15.698 36.0713 15.5113 36.454 15.138C36.846 14.7647 37.042 14.2093 37.042 13.472V7.27H38.638V13.444C38.638 14.2373 38.4653 14.9093 38.12 15.46C37.7747 16.0107 37.3127 16.4213 36.734 16.692C36.1553 16.9627 35.516 17.098 34.816 17.098C34.116 17.098 33.4767 16.9627 32.898 16.692C32.3287 16.4213 31.876 16.0107 31.54 15.46C31.204 14.9093 31.036 14.2373 31.036 13.444V7.27H32.632ZM42.312 10.42C42.5827 10.0653 42.9513 9.76667 43.418 9.524C43.8847 9.28133 44.412 9.16 45 9.16C45.672 9.16 46.2833 9.328 46.834 9.664C47.394 9.99067 47.8327 10.4527 48.15 11.05C48.4673 11.6473 48.626 12.3333 48.626 13.108C48.626 13.8827 48.4673 14.578 48.15 15.194C47.8327 15.8007 47.394 16.2767 46.834 16.622C46.2833 16.958 45.672 17.126 45 17.126C44.412 17.126 43.8893 17.0093 43.432 16.776C42.9747 16.5333 42.6013 16.2347 42.312 15.88V20.668H40.716V9.286H42.312V10.42ZM47.002 13.108C47.002 12.576 46.89 12.1187 46.666 11.736C46.4513 11.344 46.162 11.05 45.798 10.854C45.4433 10.6487 45.0607 10.546 44.65 10.546C44.2487 10.546 43.866 10.6487 43.502 10.854C43.1473 11.0593 42.858 11.358 42.634 11.75C42.4193 12.142 42.312 12.604 42.312 13.136C42.312 13.668 42.4193 14.1347 42.634 14.536C42.858 14.928 43.1473 15.2267 43.502 15.432C43.866 15.6373 44.2487 15.74 44.65 15.74C45.0607 15.74 45.4433 15.6373 45.798 15.432C46.162 15.2173 46.4513 14.9093 46.666 14.508C46.89 14.1067 47.002 13.64 47.002 13.108ZM51.8003 6.64V17H50.2043V6.64H51.8003ZM57.2417 17.126C56.5137 17.126 55.8557 16.9627 55.2677 16.636C54.6797 16.3 54.2177 15.8333 53.8817 15.236C53.5457 14.6293 53.3777 13.9293 53.3777 13.136C53.3777 12.352 53.5504 11.6567 53.8957 11.05C54.241 10.4433 54.7124 9.97667 55.3097 9.65C55.907 9.32333 56.5744 9.16 57.3117 9.16C58.049 9.16 58.7164 9.32333 59.3137 9.65C59.911 9.97667 60.3824 10.4433 60.7277 11.05C61.073 11.6567 61.2457 12.352 61.2457 13.136C61.2457 13.92 61.0684 14.6153 60.7137 15.222C60.359 15.8287 59.8737 16.3 59.2577 16.636C58.651 16.9627 57.979 17.126 57.2417 17.126ZM57.2417 15.74C57.6524 15.74 58.035 15.642 58.3897 15.446C58.7537 15.25 59.0477 14.956 59.2717 14.564C59.4957 14.172 59.6077 13.696 59.6077 13.136C59.6077 12.576 59.5004 12.1047 59.2857 11.722C59.071 11.33 58.7864 11.036 58.4317 10.84C58.077 10.644 57.6944 10.546 57.2837 10.546C56.873 10.546 56.4904 10.644 56.1357 10.84C55.7904 11.036 55.515 11.33 55.3097 11.722C55.1044 12.1047 55.0017 12.576 55.0017 13.136C55.0017 13.9667 55.2117 14.6107 55.6317 15.068C56.061 15.516 56.5977 15.74 57.2417 15.74ZM62.2914 13.108C62.2914 12.3333 62.4501 11.6473 62.7674 11.05C63.0941 10.4527 63.5328 9.99067 64.0834 9.664C64.6434 9.328 65.2594 9.16 65.9314 9.16C66.5381 9.16 67.0654 9.28133 67.5134 9.524C67.9708 9.75733 68.3348 10.0513 68.6054 10.406V9.286H70.2154V17H68.6054V15.852C68.3348 16.216 67.9661 16.5193 67.4994 16.762C67.0328 17.0047 66.5008 17.126 65.9034 17.126C65.2408 17.126 64.6341 16.958 64.0834 16.622C63.5328 16.2767 63.0941 15.8007 62.7674 15.194C62.4501 14.578 62.2914 13.8827 62.2914 13.108ZM68.6054 13.136C68.6054 12.604 68.4934 12.142 68.2694 11.75C68.0548 11.358 67.7701 11.0593 67.4154 10.854C67.0608 10.6487 66.6781 10.546 66.2674 10.546C65.8568 10.546 65.4741 10.6487 65.1194 10.854C64.7648 11.05 64.4754 11.344 64.2514 11.736C64.0368 12.1187 63.9294 12.576 63.9294 13.108C63.9294 13.64 64.0368 14.1067 64.2514 14.508C64.4754 14.9093 64.7648 15.2173 65.1194 15.432C65.4834 15.6373 65.8661 15.74 66.2674 15.74C66.6781 15.74 67.0608 15.6373 67.4154 15.432C67.7701 15.2267 68.0548 14.928 68.2694 14.536C68.4934 14.1347 68.6054 13.668 68.6054 13.136ZM71.7797 13.108C71.7797 12.3333 71.9384 11.6473 72.2557 11.05C72.5824 10.4527 73.0211 9.99067 73.5717 9.664C74.1317 9.328 74.7524 9.16 75.4337 9.16C75.9377 9.16 76.4324 9.272 76.9177 9.496C77.4124 9.71067 77.8044 10 78.0937 10.364V6.64H79.7037V17H78.0937V15.838C77.8324 16.2113 77.4684 16.5193 77.0017 16.762C76.5444 17.0047 76.0171 17.126 75.4197 17.126C74.7477 17.126 74.1317 16.958 73.5717 16.622C73.0211 16.2767 72.5824 15.8007 72.2557 15.194C71.9384 14.578 71.7797 13.8827 71.7797 13.108ZM78.0937 13.136C78.0937 12.604 77.9817 12.142 77.7577 11.75C77.5431 11.358 77.2584 11.0593 76.9037 10.854C76.5491 10.6487 76.1664 10.546 75.7557 10.546C75.3451 10.546 74.9624 10.6487 74.6077 10.854C74.2531 11.05 73.9637 11.344 73.7397 11.736C73.5251 12.1187 73.4177 12.576 73.4177 13.108C73.4177 13.64 73.5251 14.1067 73.7397 14.508C73.9637 14.9093 74.2531 15.2173 74.6077 15.432C74.9717 15.6373 75.3544 15.74 75.7557 15.74C76.1664 15.74 76.5491 15.6373 76.9037 15.432C77.2584 15.2267 77.5431 14.928 77.7577 14.536C77.9817 14.1347 78.0937 13.668 78.0937 13.136Z" fill="#8E8E8E"/>
<path d="M9 17V11L7 13M9 11L11 13" stroke="#8E8E8E" stroke-width="1.5" stroke-linecap="round" stroke-linejoin="round"/>
<path d="M22 10V15C22 20 20 22 15 22H9C4 22 2 20 2 15V9C2 4 4 2 9 2H14" stroke="#8E8E8E" stroke-width="1.5" stroke-linecap="round" stroke-linejoin="round"/>
<path d="M22 10H18C15 10 14 9 14 6V2L22 10Z" stroke="#8E8E8E" stroke-width="1.5" stroke-linecap="round" stroke-linejoin="round"/>
</svg>
